<svg xmlns="http://www.w3.org/2000/svg" viewBox="0 0 6.55 6.85"><defs><style>.cls-1{fill:#fff;}</style></defs><title>ios1</title><g id="Layer_2" data-name="Layer 2"><g id="Layer_1-2" data-name="Layer 1"><g id="g3811"><path id="Apple" class="cls-1" d="M3.69.52A1.93,1.93,0,0,1,4.87,0a1.37,1.37,0,0,1-.42,1.09,1.6,1.6,0,0,1-1.19.49A1.31,1.31,0,0,1,3.69.52ZM6,6c-.34.42-.68.83-1.23.84S4,6.57,3.43,6.57s-.81.26-1.32.28S1.18,6.4.85,6C.16,5.14-.37,3.58.34,2.53A2,2,0,0,1,2,1.67,11.66,11.66,0,0,1,3.33,2c.32,0,.91-.37,1.54-.31a2,2,0,0,1,1.47.68,1.56,1.56,0,0,0-.87,1.31A1.57,1.57,0,0,0,6.55,5,3.55,3.55,0,0,1,6,6Z"/></g></g></g></svg>