<svg xmlns="http://www.w3.org/2000/svg" viewBox="0 0 12.36 10.04"><defs><style>.cls-1{fill:#070707;}.cls-1,.cls-2{fill-rule:evenodd;}.cls-2{fill:#ffa608;}</style></defs><title>ama</title><g id="Layer_2" data-name="Layer 2"><g id="Layer_1-2" data-name="Layer 1"><path class="cls-1" d="M7.2,4.62a2.48,2.48,0,0,1-.32,1.54,1.42,1.42,0,0,1-1.18.66,1,1,0,0,1-1-1C4.66,4.53,6,4.31,7.2,4.31ZM8.92,8.15a.4.4,0,0,1-.4,0,3.81,3.81,0,0,1-1-1A3.68,3.68,0,0,1,4.73,8.27,2.25,2.25,0,0,1,2.17,6,2.49,2.49,0,0,1,4,3.65a13.73,13.73,0,0,1,3.21-.5V3a1.6,1.6,0,0,0-.21-1,1.23,1.23,0,0,0-1-.38,1.29,1.29,0,0,0-1.37.87.33.33,0,0,1-.3.27L2.71,2.52c-.14,0-.29-.12-.25-.3C2.84.51,4.65,0,6.27,0A4.35,4.35,0,0,1,8.85.72c.83.66.75,1.54.75,2.49V5.47a1.84,1.84,0,0,0,.64,1.34c.11.13.13.29,0,.38l-1.31,1Z" transform="translate(0)"/><path class="cls-2" d="M11.17,8.74a10,10,0,0,1-5,1.3,10,10,0,0,1-6.11-2c-.13-.1,0-.23.14-.16A14,14,0,0,0,6.31,9.29,14.07,14.07,0,0,0,11,8.48c.23-.08.42.13.2.27Z" transform="translate(0)"/><path class="cls-2" d="M11.73,8.2c-.17-.19-1.14-.09-1.58,0-.13,0-.15-.09,0-.16a2.82,2.82,0,0,1,2.19-.17,1.86,1.86,0,0,1-.77,1.75c-.11.08-.22,0-.17-.07.16-.35.53-1.12.35-1.31Z" transform="translate(0)"/></g></g></svg>