<svg xmlns="http://www.w3.org/2000/svg" viewBox="0 0 15.58 6.9"><defs><style>.cls-1{fill:#fff;}.cls-2{fill:#ee3e23;}.cls-3{fill:#3a74b9;}.cls-4{fill:#1f6ab3;}.cls-5{fill:#2d2d2d;}.cls-6{fill:#686868;}.cls-7{fill:#a2a5a7;}.cls-8{fill:#c1d73b;}</style></defs><title>vr</title><g id="Layer_2" data-name="Layer 2"><g id="Layer_1-2" data-name="Layer 1"><path class="cls-1" d="M3.37.77l4.42.1,4.42-.1A13.07,13.07,0,0,0,3.37.77Z"/><path class="cls-1" d="M11.85,5.91,7.79,5.78l-4.06.13A8.82,8.82,0,0,0,11.85,5.91Z"/><path class="cls-2" d="M1.5,3.58a.36.36,0,0,1-.4.31H.4A.36.36,0,0,1,0,3.58V2.41A.36.36,0,0,1,.4,2.1h.7a.36.36,0,0,1,.4.31Z"/><path class="cls-2" d="M15.58,3.58a.36.36,0,0,1-.4.31h-.7a.36.36,0,0,1-.4-.31V2.41a.36.36,0,0,1,.4-.31h.7a.36.36,0,0,1,.4.31Z"/><path class="cls-3" d="M2.88.57A1.94,1.94,0,0,0,.75,2.22V3.4a2.48,2.48,0,0,0,.88,2,4.68,4.68,0,0,0,3.1.9H7.79V.87Z"/><path class="cls-4" d="M13.94,5.44a4.68,4.68,0,0,1-3.1.9H7.79V.87L12.7.57a1.94,1.94,0,0,1,2.12,1.65V3.4A2.48,2.48,0,0,1,13.94,5.44Z"/><path class="cls-5" d="M13.29,5a3.8,3.8,0,0,1-2.45.67H4.73c-2.2,0-3.09-.93-3.09-2.22V2.22a1.13,1.13,0,0,1,1.24-1l4.91.3,4.91-.3a1.13,1.13,0,0,1,1.24,1V3.42A1.92,1.92,0,0,1,13.29,5Z"/><path class="cls-6" d="M9.11,1.48,3.91,5.61A3.13,3.13,0,0,1,2.34,5L6.78,1.5l1,.06Z"/><path class="cls-6" d="M13.89,4l-2,1.61a6.18,6.18,0,0,1-1,.08h-.51l3.6-2.86v.63A1.86,1.86,0,0,1,13.89,4Z"/><ellipse class="cls-7" cx="3.67" cy="2.28" rx="0.43" ry="0.33"/><path class="cls-8" d="M9.47,2.78H6.11c-.43,0-.4-.48,0-.48H9.47C9.87,2.3,9.9,2.78,9.47,2.78Z"/></g></g></svg>