<svg xmlns="http://www.w3.org/2000/svg" xmlns:xlink="http://www.w3.org/1999/xlink" viewBox="0 0 12.06 10.38"><defs><style>.cls-1{fill:url(#radial-gradient);}</style><radialGradient id="radial-gradient" cx="-1327.23" cy="-6325.16" fx="-1185.6412024347317" fy="-6297.15898266416" r="144.33" gradientTransform="translate(226.16 420.9) scale(0.16 0.07)" gradientUnits="userSpaceOnUse"><stop offset="0" stop-color="#fff"/><stop offset="0.27" stop-color="#acacac"/><stop offset="0.53" stop-color="#626262"/><stop offset="0.75" stop-color="#2d2d2d"/><stop offset="0.91" stop-color="#0c0c0c"/><stop offset="1"/></radialGradient></defs><title>web</title><g id="Layer_2" data-name="Layer 2"><g id="Layer_1-2" data-name="Layer 1"><path class="cls-1" d="M11.59,3.17a5.24,5.24,0,0,0-1.3-1.65A6.13,6.13,0,0,0,8.38.41a7,7,0,0,0-4.69,0A6.23,6.23,0,0,0,1.77,1.52,5.29,5.29,0,0,0,.48,3.17a4.53,4.53,0,0,0,0,4A5.29,5.29,0,0,0,1.77,8.86,6.14,6.14,0,0,0,3.69,10a6.93,6.93,0,0,0,4.69,0,6,6,0,0,0,1.92-1.11,5.24,5.24,0,0,0,1.3-1.65,4.57,4.57,0,0,0,0-4ZM4.54.62a3.88,3.88,0,0,0-.75,1,5.79,5.79,0,0,0-.38.81H1.58A5.59,5.59,0,0,1,4.54.62ZM1.19,2.91h2A8.27,8.27,0,0,0,2.94,4.7H.55A4.25,4.25,0,0,1,1.19,2.91ZM.51,5.23H2.92A8.12,8.12,0,0,0,3.12,7H.94A4.22,4.22,0,0,1,.51,5.23Zm.73,2.31h2A5.91,5.91,0,0,0,3.79,8.8a3.8,3.8,0,0,0,.75,1A5.48,5.48,0,0,1,1.24,7.54ZM5.73,9.91a1.75,1.75,0,0,1-.64-.3,3.18,3.18,0,0,1-.85-1,5.78,5.78,0,0,1-.46-1.06H5.73ZM5.73,7H3.64a7.93,7.93,0,0,1-.2-1.78H5.73Zm0-2.31H3.45a7.52,7.52,0,0,1,.31-1.78h2Zm0-2.31H3.95a5.93,5.93,0,0,1,.29-.61,3.21,3.21,0,0,1,.85-1,1.78,1.78,0,0,1,.64-.3ZM11.52,4.7H9.13a8,8,0,0,0-.29-1.78h2A4.27,4.27,0,0,1,11.52,4.7Zm-1-2.31H8.66a5.81,5.81,0,0,0-.38-.81,3.94,3.94,0,0,0-.76-1A5.6,5.6,0,0,1,10.48,2.39ZM6.34.48A1.74,1.74,0,0,1,7,.78a3.17,3.17,0,0,1,.84,1,4.76,4.76,0,0,1,.3.61H6.34Zm0,2.44h2A7.75,7.75,0,0,1,8.61,4.7H6.34Zm0,2.31H8.63A8.06,8.06,0,0,1,8.43,7H6.34ZM7,9.6a1.71,1.71,0,0,1-.64.3V7.54H8.28a5.47,5.47,0,0,1-.46,1.06A3.14,3.14,0,0,1,7,9.6Zm.55.16a3.85,3.85,0,0,0,.76-1,5.93,5.93,0,0,0,.53-1.26h2A5.48,5.48,0,0,1,7.52,9.76ZM11.13,7H8.95a8.75,8.75,0,0,0,.19-1.78h2.41A4.15,4.15,0,0,1,11.13,7Z"/></g></g></svg>